<?xml version="1.0" encoding="UTF-8"?>
<svg id="Camada_2" data-name="Camada 2" xmlns="http://www.w3.org/2000/svg" xmlns:xlink="http://www.w3.org/1999/xlink" viewBox="0 0 320 320">
  <defs>
    <style>
      .cls-1 {
        fill: red;
      }

      .cls-1, .cls-2, .cls-3, .cls-4, .cls-5, .cls-6 {
        fill-rule: evenodd;
      }

      .cls-7 {
        fill: none;
      }

      .cls-7, .cls-8, .cls-9 {
        stroke: #050505;
        stroke-miterlimit: 10;
      }

      .cls-2 {
        fill: #fefefe;
      }

      .cls-10 {
        fill: #050505;
      }

      .cls-3 {
        fill: #4e4e4e;
      }

      .cls-4 {
        fill: #193dff;
      }

      .cls-8 {
        fill: #7ebe46;
      }

      .cls-11, .cls-9 {
        fill: #fece08;
      }

      .cls-5 {
        fill: #01d101;
      }

      .cls-12 {
        clip-path: url(#clippath);
      }

      .cls-6 {
        fill: #fddb00;
      }
    </style>
    <clipPath id="clippath">
      <rect class="cls-9" x="354.81" y="76.56" width="290.39" height="166.88" rx="16.8" ry="16.8"/>
    </clipPath>
  </defs>
  <g>
    <rect class="cls-11" x="354.81" y="76.56" width="290.39" height="166.88" rx="16.8" ry="16.8"/>
    <g class="cls-12">
      <g>
        <g id="path2">
          <polygon class="cls-2" points="430.99 42.49 562.17 261.35 299.85 261.35 430.99 42.49"/>
        </g>
        <g id="g6">
          <g id="path4">
            <path class="cls-5" d="M199.33,42.49l142.19,218.86h-142.19V42.49Z"/>
          </g>
        </g>
        <g id="g10">
          <g id="path8">
            <path class="cls-3" d="M319.83,227.94l-19.99,33.38h41.69l-21.7-33.38Z"/>
          </g>
        </g>
        <g id="g18">
          <g id="path16">
            <path class="cls-4" d="M285.34,42.49c36.19,0,65.57,29.38,65.57,65.57s-29.38,65.57-65.57,65.57l-65.95-12.83-20.06-118.31h86.02Z"/>
          </g>
        </g>
        <g id="g54">
          <g id="path52">
            <path class="cls-1" d="M133.75,130.17c36.19,0,65.57,29.38,65.57,65.57s-29.38,65.57-65.57,65.57H32.93v-131.14h100.83Z"/>
          </g>
        </g>
        <g id="g58">
          <g id="path56">
            <path class="cls-4" d="M126.8,42.49c24.2,0,43.84,19.64,43.84,43.84s-19.64,43.84-43.84,43.84h-52.64l31.5-87.68h21.14,0Z"/>
          </g>
        </g>
        <g id="g136">
          <g id="rect134">
            <path class="cls-6" d="M32.93,124.04h76.56v137.28H32.93V124.04Z"/>
          </g>
        </g>
        <g id="g140">
          <g id="rect138">
            <path class="cls-5" d="M32.93,42.48h76.56v87.68H32.93V42.48Z"/>
          </g>
        </g>
        <g id="g144">
          <g id="path142">
            <path class="cls-6" d="M199.34,42.47l85.22,131.17h-85.22V42.47Z"/>
          </g>
        </g>
      </g>
    </g>
    <rect class="cls-7" x="354.81" y="76.56" width="290.39" height="166.88" rx="16.8" ry="16.8"/>
  </g>
  <g>
    <path class="cls-10" d="M284.55,130.69l-23.99,28.66c-.65,12.01.73,24.37-.73,36.27l-25.98,30.26-35.31,15.99c-.65,1.07.27,20.2-.08,23.64-.19,2.3-.99,3.21-2.33,4.94-7.35,9.3-18.71,17.94-26.32,27.35-1.42,1.19-3.44,1.65-5.24,1.03l-29.08-20.89c-2.53-1.84-4.17-4.51-2.33-7.46l19.86-24.26-12.13-24.26c-4.9-1.61-12.63.76-13.31-6.47-.84-9.37.69-20.09.04-29.61l-12.74-7.69-6.12-17.06c-5.47-2.49-15.95-3.48-20.7-6.62-2.75-1.84-6.62-10.56-8.38-13.81-.8-.57-15.46,7.35-18.48,7.35-.61-.04-1.15-.15-1.68-.42l-29.8-20.74c-.99-.84-1.87-2.37-2.07-3.67-.61-3.98-.54-17.68-.04-21.85.27-2.53,1.65-3.6,3.94-4.4,6.24-2.1,14.5-2.6,21.04-4.21.69-9.11-.88-19.4.04-28.35.19-2.18,1.03-5.24,3.25-6.12,1.87-.76,15.07-.65,17.83-.42,2.91.27,4.59,1.61,7.19,2.53l8.42-6.7c1.15-3.52-1.26-9.64,1.87-12.2l26.02-9.14h3.63c1.76.57,7.31,9.87,7.31,10.71v15.07c0,.34,1.03,1.07,1.57.61l21.2-8.53,13.31-.11c2.22-2.26,6.66-10.44,9.53-10.94,2.33-.38,4.44-.11,5.89,1.87.99,1.42,6.27,10.87,6.58,12.17.92,3.52-.34,7.38.5,10.94,3.79,2.87,14.88,5.93,12.51,12.09l12.55,3.9c-.27.61-.42,1.3-.42,2.03,0,2.87,2.33,5.2,5.2,5.2,2.52,0,4.59-1.8,5.05-4.21l12.51,3.86c.34-.92.92-1.57,1.99-2.14,2.87-1.61,3.83-.42,6.35-.38,4.86,0,10.1-.65,14.69.88l26.17,20.74c.76.84,1.42,2.03,1.57,3.14.38,2.49.34,19.7-.34,21.42Z"/>
    <path class="cls-8" d="M292.2,119.21l-23.99,28.66c-.65,12.01.73,24.37-.73,36.27l-25.98,30.26-35.31,15.99c-.65,1.07.27,20.2-.08,23.64-.19,2.3-.99,3.21-2.33,4.94-7.35,9.3-18.71,17.94-26.32,27.35-1.42,1.19-3.44,1.65-5.24,1.03l-29.08-20.89c-2.53-1.84-4.17-4.51-2.33-7.46l19.86-24.26-12.13-24.26c-4.9-1.61-12.63.76-13.31-6.47-.84-9.37.69-20.09.04-29.61l-12.74-7.69-6.12-17.06c-5.47-2.49-15.95-3.48-20.7-6.62-2.75-1.84-6.62-10.56-8.38-13.81-.8-.57-15.46,7.35-18.48,7.35-.61-.04-1.15-.15-1.68-.42l-29.8-20.74c-.99-.84-1.87-2.37-2.07-3.67-.61-3.98-.54-17.68-.04-21.85.27-2.53,1.65-3.6,3.94-4.4,6.24-2.1,14.5-2.6,21.04-4.21.69-9.11-.88-19.4.04-28.35.19-2.18,1.03-5.24,3.25-6.12,1.87-.76,15.07-.65,17.83-.42,2.91.27,4.59,1.61,7.19,2.53l8.42-6.7c1.15-3.52-1.26-9.64,1.87-12.2l26.02-9.14h3.63c1.76.57,7.31,9.87,7.31,10.71v15.07c0,.34,1.03,1.07,1.57.61l21.2-8.53,13.31-.11c2.22-2.26,6.66-10.44,9.53-10.94,2.33-.38,4.44-.11,5.89,1.87.99,1.42,6.27,10.87,6.58,12.17.92,3.52-.34,7.38.5,10.94,3.79,2.87,14.88,5.93,12.51,12.09l12.55,3.9c-.27.61-.42,1.3-.42,2.03,0,2.87,2.33,5.2,5.2,5.2,2.52,0,4.59-1.8,5.05-4.21l12.51,3.86c.34-.92.92-1.57,1.99-2.14,2.87-1.61,3.83-.42,6.35-.38,4.86,0,10.1-.65,14.69.88l26.17,20.74c.76.84,1.42,2.03,1.57,3.14.38,2.49.34,19.7-.34,21.42Z"/>
  </g>
</svg>