<?xml version="1.0" encoding="UTF-8"?>
<svg id="Camada_2" data-name="Camada 2" xmlns="http://www.w3.org/2000/svg" viewBox="0 0 320 320">
  <defs>
    <style>
      .cls-1 {
        fill: #050505;
      }

      .cls-2 {
        fill: #7ebe46;
      }

      .cls-3 {
        fill: #4c63a7;
      }

      .cls-4 {
        fill: #fdd31f;
      }
    </style>
  </defs>
  <g>
    <path class="cls-2" d="M159.99,273.95c-62.83,0-113.95-51.12-113.95-113.95s51.12-113.95,113.95-113.95,113.95,51.12,113.95,113.95-51.12,113.95-113.95,113.95Z"/>
    <path class="cls-1" d="M160,48.1c61.8,0,111.9,50.1,111.9,111.9s-50.1,111.9-111.9,111.9-111.9-50.1-111.9-111.9,50.1-111.9,111.9-111.9M160,44c-63.96,0-116,52.04-116,116s52.04,116,116,116,116-52.04,116-116-52.04-116-116-116h0Z"/>
  </g>
  <rect class="cls-4" x="80.91" y="80.86" width="158.24" height="158.25" transform="translate(-66.25 160.02) rotate(-45)"/>
  <g>
    <path class="cls-3" d="M113.53,187.35v-55.66h24.61c3.29,0,6.32.91,9.07,2.74,2.76,1.82,4.88,4.14,6.37,6.95,1.49,2.81,2.24,5.74,2.24,8.8,0,3.57-.91,6.85-2.74,9.82-1.82,2.97-4.26,5.11-7.29,6.41l12.71,20.94h-11.9l-11.45-18.64h-10.83v18.64h-10.79ZM124.32,159.22h13.55c1.99,0,3.67-.87,5.03-2.62,1.36-1.75,2.05-3.88,2.05-6.41s-.77-4.66-2.3-6.39c-1.53-1.73-3.28-2.6-5.24-2.6h-13.09v18.03Z"/>
    <path class="cls-3" d="M206.46,171.43c0,2.22-.33,4.23-1,6.03-.66,1.8-1.57,3.32-2.72,4.55-1.15,1.24-2.53,2.29-4.13,3.16-1.61.87-3.32,1.51-5.13,1.93-1.81.42-3.76.68-5.86.78v8.65h-5.24v-8.73c-3.6-.31-7.12-1.07-10.56-2.3-3.44-1.22-6.56-2.81-9.34-4.75l4.79-9.34c1.1,1.1,3.18,2.37,6.26,3.83,3.07,1.45,6.26,2.4,9.55,2.83v-13.55l-2.56-.69c-2.78-.79-5.1-1.6-6.97-2.43-1.86-.83-3.48-1.83-4.86-3-1.38-1.17-2.38-2.55-3-4.12-.63-1.57-.94-3.41-.94-5.53,0-5.03,1.63-9.05,4.9-12.08,3.27-3.02,7.51-4.79,12.75-5.3v-7.92h5.24v7.92c5.89.49,11.51,2.51,16.84,6.09l-4.79,8.8c-.82-.89-2.49-1.93-5.01-3.12-2.53-1.19-5.13-1.92-7.81-2.2v13.55l1.72.46c2.37.61,4.41,1.22,6.11,1.82,1.7.6,3.33,1.35,4.9,2.26,1.57.91,2.83,1.91,3.77,3.02.94,1.11,1.7,2.45,2.26,4.02.56,1.57.84,3.35.84,5.34ZM175.88,147.05c0,1.63.56,2.92,1.68,3.85,1.12.93,2.96,1.79,5.51,2.58v-12.59c-2.37.18-4.17.8-5.38,1.86-1.21,1.06-1.82,2.49-1.82,4.31ZM186.87,178.24c5.38-.23,8.08-2.13,8.08-5.7,0-1.68-.65-3.02-1.95-4.02-1.3-1-3.34-1.95-6.12-2.87v12.59Z"/>
  </g>
</svg>