<?xml version="1.0" encoding="UTF-8"?>
<svg id="Camada_2" data-name="Camada 2" xmlns="http://www.w3.org/2000/svg" xmlns:xlink="http://www.w3.org/1999/xlink" viewBox="0 0 320 320">
  <defs>
    <style>
      .cls-1 {
        fill: #fcd026;
      }

      .cls-1, .cls-2, .cls-3, .cls-4, .cls-5, .cls-6, .cls-7, .cls-8, .cls-9, .cls-10, .cls-11, .cls-12 {
        fill-rule: evenodd;
      }

      .cls-2 {
        fill: red;
      }

      .cls-3 {
        fill: #4e62a9;
      }

      .cls-13 {
        fill: none;
      }

      .cls-13, .cls-14, .cls-15 {
        stroke: #050505;
        stroke-miterlimit: 10;
      }

      .cls-4 {
        fill: #fefefe;
      }

      .cls-14 {
        stroke-width: .5px;
      }

      .cls-14, .cls-16, .cls-15 {
        fill: #fece08;
      }

      .cls-5, .cls-17 {
        fill: #231f20;
      }

      .cls-6 {
        fill: #4e4e4e;
      }

      .cls-7 {
        fill: #80b945;
      }

      .cls-8 {
        fill: #4a3f3c;
      }

      .cls-9 {
        fill: #193dff;
      }

      .cls-10 {
        fill: #01d101;
      }

      .cls-11 {
        fill: #e8262c;
      }

      .cls-18 {
        clip-path: url(#clippath);
      }

      .cls-12 {
        fill: #fddb00;
      }
    </style>
    <clipPath id="clippath">
      <rect class="cls-15" x="14.81" y="76.56" width="290.39" height="166.88" rx="16.8" ry="16.8"/>
    </clipPath>
  </defs>
  <g>
    <rect class="cls-16" x="14.81" y="76.56" width="290.39" height="166.88" rx="16.8" ry="16.8"/>
    <g class="cls-18">
      <g>
        <g id="path2">
          <polygon class="cls-4" points="90.99 42.49 222.17 261.35 -40.15 261.35 90.99 42.49"/>
        </g>
        <g id="g6">
          <g id="path4">
            <path class="cls-10" d="M-140.67,42.49L1.53,261.35h-142.19V42.49Z"/>
          </g>
        </g>
        <g id="g10">
          <g id="path8">
            <path class="cls-6" d="M-20.17,227.94l-19.99,33.38H1.53l-21.7-33.38Z"/>
          </g>
        </g>
        <g id="g14">
          <g id="path12">
            <path class="cls-9" d="M90.99,181.1c44.28,0,80.24,35.95,80.24,80.24H10.75c0-44.28,35.95-80.24,80.24-80.24h0Z"/>
          </g>
        </g>
        <g id="g18">
          <g id="path16">
            <path class="cls-9" d="M-54.66,42.49c36.19,0,65.57,29.38,65.57,65.57s-29.38,65.57-65.57,65.57l-65.95-12.83-20.06-118.31H-54.66Z"/>
          </g>
        </g>
        <g id="g38">
          <g id="path36">
            <path class="cls-12" d="M237.36,247.76c-17.21-12.69-28.37-33.1-28.37-56.12s11.16-43.43,28.37-56.12v-13.56h41.3c38.45,0,69.67,31.22,69.67,69.67s-31.22,69.67-69.67,69.67h-41.3v-13.56Z"/>
          </g>
        </g>
        <g id="g42">
          <g id="path40">
            <path class="cls-10" d="M260.79,108.37l-2.68,13.59v15.58h-26.98c-26.21,0-47.53-21.31-47.53-47.53s21.31-47.53,47.53-47.53h26.98l2.68,13.59v52.29h0Z"/>
          </g>
        </g>
        <g id="g46">
          <g id="rect44">
            <path class="cls-9" d="M258.12,42.47h79.13v79.5h-79.13V42.47Z"/>
          </g>
        </g>
        <g id="g50">
          <g id="rect48">
            <path class="cls-2" d="M183.59,137.53h74.52v123.81h-74.52v-123.81Z"/>
          </g>
        </g>
        <g id="g92">
          <g id="path90">
            <path class="cls-6" d="M183.61,197l38.56,64.36h-38.56v-64.36Z"/>
          </g>
        </g>
      </g>
    </g>
    <rect class="cls-13" x="14.81" y="76.56" width="290.39" height="166.88" rx="16.8" ry="16.8"/>
  </g>
  <g>
    <polygon class="cls-11" points="58.14 137.41 64.11 137.41 64.11 147.85 58.14 147.85 58.14 137.41 58.14 137.41"/>
    <path class="cls-3" d="M64.11,130.69h1.43c1.85,0,3.36,1.51,3.36,3.36h0c0,1.85-1.51,3.36-3.36,3.36h-1.43v-6.73h0Z"/>
    <path class="cls-1" d="M64.11,137.41h1.81c2.87,0,5.22,2.35,5.22,5.22h0c0,2.87-2.35,5.22-5.22,5.22h-1.81v-10.44h0Z"/>
    <path class="cls-7" d="M79.18,130.18c4.92,0,8.92,3.99,8.92,8.92s-3.99,8.92-8.92,8.92-8.92-3.99-8.92-8.92,3.99-8.92,8.92-8.92h0Z"/>
    <polygon class="cls-1" points="87.9 130.39 93.88 130.39 93.88 142.09 87.9 142.09 87.9 130.39 87.9 130.39"/>
    <polygon class="cls-1" points="99.88 138.23 105.6 138.23 105.6 147.85 99.88 147.85 99.88 138.23 99.88 138.23"/>
    <polygon class="cls-3" points="93.88 142.09 100.12 142.09 100.12 147.85 93.88 147.85 93.88 142.09 93.88 142.09"/>
    <polygon class="cls-3" points="105.68 130.69 112.03 130.69 112.03 137.13 105.68 137.13 105.68 130.69 105.68 130.69"/>
    <path class="cls-7" d="M103.57,130.69h2.1v7.55h-2.1c-2.03,0-3.69-1.66-3.69-3.69v-.16c0-2.03,1.66-3.69,3.69-3.69h0Z"/>
    <path class="cls-11" d="M107.63,136.85h-1.99s-.03.02-.03.03v10.93s.02.03.03.03h1.99c3.02,0,5.5-2.47,5.5-5.5h0c0-3.02-2.47-5.5-5.5-5.5h0Z"/>
    <path class="cls-1" d="M120.85,141.58c3.47,0,6.29,2.81,6.31,6.27h3.93l-10.24-17.16-8.03,13.45c-.25.72-.64,1.37-1.14,1.91l-1.07,1.8h3.93c.02-3.47,2.84-6.27,6.31-6.27h0Z"/>
    <path class="cls-3" d="M127.16,147.85c-.02-3.47-2.84-6.27-6.31-6.27s-6.29,2.81-6.31,6.27h12.62Z"/>
    <polygon class="cls-8" points="87.9 142.09 93.88 142.09 93.88 147.85 87.9 147.85 87.9 142.09 87.9 142.09"/>
    <polygon class="cls-7" points="58.14 130.69 64.11 130.69 64.11 137.41 58.14 137.41 58.14 130.69 58.14 130.69"/>
    <path class="cls-5" d="M62.58,163.77s.32-6.4.46-7.3c.14-.9.02-.98.18-1.17.16-.18.85-.33,1.22-.42.37-.08,2.32-.06,2.32-.06v-1.72s-1.78,0-2.22.14c-.44.14-.62.24-.73.23-.1-.01-.14-.43-.08-.87.06-.44,1.35-5.34,1.71-6.14.36-.8.72-1.45.9-1,.18.45.18.77.18.77h1.81s-.16-1.8-.82-2.34c-.66-.54-1.15-.81-1.71-.53-.55.28-1.14.84-1.95,2.43-.81,1.59-1.73,6.07-1.87,6.84-.14.77-.17.82-.25,1-.08.18-.07.27-.16.35-.09.08-1.64.44-1.72.51-.08.07.81,1.53.81,1.53l.54-.06s.08,1.11-.07,2.1c-.15.99-.27,5.65-.27,5.65l1.7.03h0Z"/>
    <path class="cls-5" d="M97.79,160.61c-.11-.1-.27-.31-.35-1.12-.08-.81-.07-2.23.03-3.4.1-1.18.31-2.11.41-2.6.1-.49.1-.52-.18-.58-.28-.06-.84-.14-1.14-.18-.31-.04-.36-.05-.49.28-.13.33-.34,1.01-.68,1.78-.34.77-.82,1.64-1.2,2.3-.39.67-.69,1.13-1.06,1.54-.37.42-.81.79-1.08,1-.27.21-.37.26-.48.07-.11-.19-.22-.62-.31-1.53-.08-.91-.13-2.3-.24-3.23-.11-.93-.28-1.39-.55-1.71-.27-.32-.64-.5-1.02-.45-.38.04-.76.3-1.15.86-.39.56-.79,1.42-1.09,2.15-.3.73-.51,1.34-.64,1.67-.12.34-.16.41-.17.22,0-.18.02-.62.1-1.53.08-.9.22-2.27.23-3.18,0-.91-.12-1.37-.35-1.63-.23-.27-.56-.34-.88-.29-.32.06-.63.24-.99.67-.37.42-.79,1.07-1.03,1.48-.24.41-.29.57-.34.68-.05.1-.09.14-.12-.3-.03-.44-.04-1.34-.17-1.82-.13-.47-.37-.51-.68-.47-.31.05-.69.18-1.02.82-.32.65-.59,1.8-.96,2.83-.37,1.03-.85,1.93-1.33,2.65-.48.72-.95,1.27-1.33,1.62-.38.35-.65.51-.92.58-.26.08-.51.08-.74,0-.23-.07-.43-.2-.57-.69-.14-.49-.22-1.34-.09-2.65.13-1.31.47-3.07.65-3.98.18-.9.21-.95,0-1.09-.21-.14-.66-.37-.91-.49-.25-.12-.31-.13-.45.18-.14.32-.36.96-.49,1.3-.13.34-.16.36-.2.36-.04,0-.09-.04-.19-.15-.1-.11-.26-.28-.5-.56-.24-.28-.57-.66-.9-.88-.33-.22-.67-.28-1.12-.21-.44.07-.98.28-1.52.67-.54.39-1.07.98-1.52,1.65-.45.68-.83,1.45-1.08,2.15-.25.69-.37,1.31-.44,1.96-.06.65-.06,1.34.05,1.86.11.52.34.88.72,1.2.38.32.92.61,1.47.69.55.07,1.1-.07,1.67-.44.57-.37,1.14-.97,1.62-1.52.48-.55.85-1.05,1.05-1.33.2-.28.22-.32.25-.1.03.23.08.73.22,1.26.14.53.38,1.08.72,1.51.34.43.78.72,1.22.87.44.15.88.15,1.41-.01.53-.17,1.14-.5,1.71-.99.57-.49,1.1-1.13,1.46-1.61.36-.48.54-.81.65-1,.12-.2.16-.26.11.13-.06.39-.22,1.25-.41,2.06-.19.81-.4,1.56-.51,1.95-.11.39-.11.42.12.53.24.11.71.3.99.39.28.09.35.09.57-.46.21-.55.56-1.65,1.04-2.98.48-1.33,1.08-2.91,1.49-3.88.41-.97.63-1.35.76-1.55.13-.2.18-.24.16.11-.02.35-.11,1.07-.23,2.04-.12.96-.27,2.16-.35,2.93-.07.77-.07,1.1,0,1.44.08.34.22.69.5.89.28.2.69.25,1.09.04.41-.2.81-.66,1.31-1.68.5-1.01,1.1-2.58,1.43-3.4.33-.82.41-.9.47-.64.06.27.12.87.18,1.58.06.71.14,1.51.29,2.15.15.65.37,1.14.64,1.47.27.33.57.51.87.59.29.08.58.06.94-.09.36-.15.81-.43,1.33-.92.52-.49,1.11-1.19,1.45-1.58.34-.39.42-.46.49-.24.06.22.11.73.22,1.24.11.51.28,1.03.48,1.4.2.37.43.59.74.75.31.16.71.26,1.16.21.45-.05.95-.26,1.58-.85.63-.59,1.4-1.57,1.85-2.11.45-.55.59-.67.66-.72.07-.05.08-.02.06.42-.02.45-.07,1.31-.06,2.04.01.73.09,1.31.24,1.79.15.48.36.85.62,1.13.26.28.57.46.9.55.34.09.7.07,1.19-.13.49-.21,1.11-.6,1.42-.81.31-.21.3-.23.09-.43-.21-.21-.62-.6-.84-.8-.22-.2-.24-.2-.37-.09-.13.11-.37.35-.58.47-.21.12-.38.13-.52.07-.14-.06-.24-.2-.31-.9-.07-.7-.1-1.96-.01-3.52.09-1.56.3-3.43.7-5.67.4-2.24.98-4.86,1.27-6.18.29-1.32.29-1.34.02-1.39-.27-.06-.8-.15-1.09-.2-.29-.05-.35-.06-.46.32-.11.38-.27,1.14-.59,2.37-.32,1.23-.78,2.94-1.25,4.47-.47,1.54-.93,2.91-1.36,3.97-.44,1.06-.85,1.81-1.32,2.47-.47.66-1.01,1.22-1.34,1.56-.33.34-.47.46-.57.52-.1.06-.17.06-.28-.04h0ZM72.97,154.47c-.23.48-.64,1.35-1.14,2.16-.5.81-1.08,1.58-1.51,2.08-.43.5-.7.74-.96.83-.26.09-.5.03-.7-.08-.2-.11-.35-.27-.44-.72-.08-.45-.09-1.18.15-2.03.24-.85.74-1.81,1.24-2.53.5-.72,1.02-1.2,1.34-1.43.32-.23.45-.22.59-.11.15.12.31.34.42.54.1.19.14.35.14.46,0,.11-.02.17.08.2.1.02.33.01.54,0,.21-.01.39-.03.46.02.07.04.02.14-.21.62h0Z"/>
    <path class="cls-5" d="M106.98,156.87c-.15.83-.22,1.84-.21,2.68,0,.83.1,1.49.38,2.02.28.53.74.94,1.12,1.19.38.24.67.32,1.02.31.35-.01.74-.11,1.19-.39.45-.28.95-.73,1.44-1.33.49-.61.96-1.36,1.22-1.78.25-.41.29-.48.34-.5.05-.02.11.02.18.19.07.17.16.46.38.77.21.31.56.64.93.87.38.23.79.35,1.18.39.39.03.75-.02,1.18-.26.43-.23.91-.64,1.4-1.19.49-.54.99-1.22,1.29-1.63.3-.41.41-.57.46-.62.04-.05.02,0,.02.26,0,.27.01.76.22,1.34.2.58.6,1.25.99,1.66.4.41.79.55,1.22.63.43.08.89.1,1.34,0,.45-.1.89-.32,1.35-.64.46-.32.94-.74,1.42-1.39.48-.65.95-1.53,1.3-2.23.35-.71.58-1.25.72-1.6.15-.35.22-.51.25-.61.03-.1.03-.14-.26-.26-.29-.12-.87-.33-1.18-.43-.3-.1-.33-.1-.48.33-.15.42-.42,1.26-.75,2.01-.34.75-.74,1.41-1.13,1.91-.39.5-.77.83-1.07,1.03-.3.2-.52.27-.75.27-.23,0-.46-.06-.69-.2-.22-.14-.43-.37-.56-.74-.13-.36-.19-.87-.2-1.46,0-.59.05-1.27.23-2.26.19-.99.5-2.3.69-2.99.18-.69.23-.77-.03-.91-.26-.14-.84-.34-1.14-.45-.3-.1-.33-.11-.44.15-.11.26-.3.79-.41,1.09-.11.3-.13.38-.15.43-.02.05-.04.08-.18-.04-.14-.13-.39-.41-.62-.69-.23-.28-.43-.56-.72-.74-.3-.18-.69-.25-1.11-.24-.42.01-.86.11-1.29.36-.43.26-.86.68-1.4,1.33-.54.65-1.19,1.53-1.92,2.66-.74,1.12-1.56,2.49-2.17,3.5-.62,1.01-1.03,1.65-1.36,2.02-.32.37-.55.45-.77.5-.21.05-.4.06-.54,0-.14-.07-.23-.22-.28-.65-.05-.43-.08-1.14-.01-2,.07-.85.22-1.85.43-2.77.21-.93.49-1.78.65-2.25.16-.46.2-.54.21-.6.01-.06,0-.1-.27-.21-.27-.11-.78-.29-1.06-.38-.28-.09-.33-.1-.45.32-.13.42-.33,1.27-.54,2.01-.21.74-.43,1.39-.57,2.21h0ZM115.55,156.72c.24-.85.74-1.81,1.24-2.53.5-.72,1.02-1.2,1.34-1.43.32-.23.45-.22.59-.11.15.12.31.34.42.54.1.19.14.35.14.46,0,.11-.02.17.08.2.1.02.33.01.54,0,.21-.01.39-.03.46.02.07.04.02.14-.21.62-.23.48-.64,1.35-1.14,2.16-.5.81-1.08,1.58-1.51,2.08-.43.5-.7.74-.96.83-.26.09-.5.03-.7-.08-.2-.11-.35-.27-.44-.72-.08-.45-.09-1.18.15-2.03h0Z"/>
    <path class="cls-5" d="M108.98,150.67c.16.15.31.22.52.26.21.04.47.05.72-.03.25-.08.47-.24.66-.42.19-.18.33-.38.34-.66,0-.28-.12-.63-.28-.91-.16-.28-.35-.47-.53-.58-.18-.1-.34-.12-.55-.07-.21.05-.46.16-.68.34-.22.18-.42.44-.53.7-.11.26-.12.52-.05.76.07.24.24.46.39.61h0Z"/>
    <path class="cls-5" d="M98.31,150.14c.77-.39,1.66-.93,2.15-1.25.49-.31.58-.4.64-.45.06-.05.08-.07-.1-.31-.18-.24-.58-.71-.8-.96-.22-.25-.26-.28-.38-.19-.12.09-.31.29-.69.56-.38.27-.94.6-1.55.89-.61.28-1.26.51-1.61.63-.35.12-.4.12-.42.16-.02.03-.01.09.1.38.11.29.31.82.43,1.09.12.28.16.31.49.2.34-.11.98-.36,1.75-.75h0Z"/>
    <path class="cls-17" d="M64.26,127.61v-4.78h1.55c.59,0,.97.02,1.15.07.27.07.5.23.69.47.18.24.28.55.28.93,0,.29-.05.54-.16.74-.11.2-.24.36-.41.47-.16.11-.33.19-.5.23-.23.05-.56.07-1,.07h-.63v1.8h-.97ZM65.23,123.63v1.36h.53c.38,0,.63-.03.76-.08.13-.05.23-.13.3-.24.07-.11.11-.23.11-.37,0-.17-.05-.32-.15-.43-.1-.11-.23-.18-.39-.21-.11-.02-.35-.03-.69-.03h-.46ZM71.82,127.61v-4.78h2.03c.51,0,.88.04,1.11.13.23.09.42.24.56.46.14.22.21.47.21.75,0,.36-.1.66-.32.89-.21.23-.52.38-.94.44.21.12.38.25.51.4.14.15.32.41.55.78l.58.93h-1.15l-.69-1.04c-.25-.37-.42-.6-.51-.7-.09-.1-.19-.16-.29-.2-.1-.04-.27-.05-.49-.05h-.2v2h-.97ZM72.79,124.85h.71c.46,0,.75-.02.87-.06.11-.04.21-.11.27-.2.07-.1.1-.22.1-.36,0-.16-.04-.29-.13-.39-.09-.1-.21-.16-.36-.19-.08-.01-.31-.02-.7-.02h-.75v1.22h0ZM79.55,125.24c0-.49.07-.9.22-1.23.11-.24.26-.46.45-.66.19-.19.39-.34.62-.43.3-.13.64-.19,1.03-.19.71,0,1.27.22,1.69.66.42.44.63,1.05.63,1.83s-.21,1.38-.63,1.82c-.42.44-.98.66-1.68.66s-1.28-.22-1.7-.65c-.42-.43-.63-1.03-.63-1.8h0ZM80.55,125.21c0,.54.13.95.38,1.23.25.28.57.42.95.42s.7-.14.95-.42c.25-.28.37-.69.37-1.25s-.12-.96-.36-1.23c-.24-.27-.56-.41-.96-.41s-.72.14-.96.41c-.24.27-.37.69-.37,1.24h0ZM90.28,125.85v-.81h2.08v1.91c-.2.2-.49.37-.88.52-.38.15-.77.22-1.17.22-.5,0-.94-.1-1.31-.32-.37-.21-.65-.51-.84-.9-.19-.39-.28-.82-.28-1.28,0-.5.1-.94.31-1.33.21-.39.51-.69.92-.89.31-.16.69-.24,1.14-.24.59,0,1.06.12,1.39.37.33.25.55.59.64,1.04l-.96.18c-.07-.23-.19-.42-.38-.56-.18-.14-.42-.2-.69-.2-.42,0-.76.13-1,.4-.25.27-.37.67-.37,1.19,0,.57.13,1,.38,1.28.25.28.58.43.99.43.2,0,.4-.04.61-.12.2-.08.38-.18.52-.29v-.61h-1.1ZM96.36,127.61v-4.78h2.03c.51,0,.88.04,1.11.13.23.09.42.24.56.46.14.22.21.47.21.75,0,.36-.1.66-.32.89-.21.23-.52.38-.94.44.21.12.38.25.51.4.14.15.32.41.55.78l.58.93h-1.15l-.69-1.04c-.25-.37-.42-.6-.51-.7-.09-.1-.19-.16-.29-.2-.1-.04-.27-.05-.49-.05h-.2v2h-.97ZM97.32,124.85h.71c.46,0,.75-.02.87-.06.11-.04.21-.11.27-.2.07-.1.1-.22.1-.36,0-.16-.04-.29-.13-.39-.09-.1-.21-.16-.36-.19-.08-.01-.31-.02-.7-.02h-.75v1.22h0ZM108.59,127.61h-1.04l-.41-1.09h-1.92l-.4,1.09h-1.02l1.86-4.78h1.02l1.92,4.78h0ZM106.82,125.71l-.66-1.77-.65,1.77h1.31ZM112.2,127.61v-4.78h1.45l.86,3.26.85-3.26h1.45v4.78h-.9v-3.77s-.95,3.77-.95,3.77h-.93l-.94-3.77v3.77h-.9ZM125.19,127.61h-1.04l-.41-1.09h-1.92l-.4,1.09h-1.02l1.86-4.78h1.02l1.92,4.78h0ZM123.42,125.71l-.66-1.77-.65,1.77h1.31Z"/>
  </g>
  <rect class="cls-14" x="212.41" y="160" width="35.66" height="20.64" rx="5.76" ry="5.76"/>
</svg>