<?xml version="1.0" encoding="UTF-8"?>
<svg id="Camada_2" data-name="Camada 2" xmlns="http://www.w3.org/2000/svg" viewBox="0 0 320 320">
  <defs>
    <style>
      .cls-1 {
        fill: #835232;
      }

      .cls-1, .cls-2, .cls-3, .cls-4, .cls-5, .cls-6, .cls-7, .cls-8, .cls-9, .cls-10 {
        stroke: #131500;
        stroke-miterlimit: 10;
        stroke-width: .25px;
      }

      .cls-2 {
        fill: #328f4f;
      }

      .cls-3 {
        fill: #abaa9f;
      }

      .cls-4 {
        fill: #2d70a1;
      }

      .cls-5 {
        fill: #2092c6;
      }

      .cls-6 {
        fill: #131500;
      }

      .cls-7 {
        fill: #b06059;
      }

      .cls-8 {
        fill: #235b7d;
      }

      .cls-9 {
        fill: #040506;
      }

      .cls-10 {
        fill: #f4cca8;
      }
    </style>
  </defs>
  <path class="cls-7" d="M231.69,242.06c0,.44-.89,1.4-.77,2.82.57,7.05,3.04,15.19,3.31,22.52-3.09,0-6.2,0-9.29,0-.28,0-.56,0-.84,0,.98-4.22-4.04-17.9-3.28-20.56.49-1.73,8.71-4.61,10.89-4.77Z"/>
  <path class="cls-7" d="M175.95,242.9c1.66-.31,9.99,2.16,10.2,3.08l-3.44,21.41c-.28,0-.56,0-.84,0-3.37,0-6.76,0-10.13,0-.38-3.84,4.88-22.75,4.22-24.49Z"/>
  <path class="cls-9" d="M188.62,172.8c2.94.06,5.09-2.04,7.77-2.79,10.7-2.98,22.71.75,26.43,12.09.76,2.33.75,6.79,1.73,8.41.76,1.26,7.15,4.81,7.15,7.21v16.05c0,.38,2.23,1.45-.43,1.28-6.65-.42-9.84-4.01-13.09-9.31.22-.45-.32-2.12.43-3.34,1.14-1.85,6.21-2.64,4.09-7.41-.12-.28-3.95-4.21-4.24-4.31-1.75-.62-4.53.32-6.48-.91-1.49-.93-.65-4.07-2.66-3.46-.95.29-.44,3.93-1.83,4.27-4.82,1.15-15.69-1.36-20.04-.09-.93.27-.41,2.37-1.33,3.09-.63.49-5.45-1.58-3.24,5.67,1.29,4.25,5.81.12,4.05,6.5-1.44,5.21-5.45,9.9-11.41,10.14-4.24.17-.64-2.39-.37-5.49.52-5.95-3.58-11.37,2.44-16.94,1.28-1.18,3.56-1.7,4.05-2.28,1.17-1.39.85-6.12,1.46-8.25,1.01-3.55,4.6-6.59,5.51-10.11Z"/>
  <path class="cls-7" d="M186.93,205.74c1.76-6.38-2.76-2.25-4.05-6.5-2.21-7.25,2.61-5.18,3.24-5.67.92-.72.4-2.82,1.33-3.09,4.36-1.26,15.23,1.25,20.04.09,1.39-.33.88-3.98,1.83-4.27,2.02-.61,1.17,2.52,2.66,3.46,1.95,1.22,4.72.29,6.48.91.29.1,4.12,4.03,4.24,4.31,2.11,4.77-2.96,5.56-4.09,7.41-.75,1.23-.2,2.89-.43,3.34-.21.43-5.32,5.05-6.12,6.97-.97,2.31-.25,4.02-.64,5.7-.09.39-.65.6-.84.84l-6.44,2.49c-1.81,1.06-9.43-1.92-7.07-4.18.45-.43,10.67.9,11.82-2.53-1.62-.24-3.05.9-4.64.84-6-.22-8.21-3.54-12.25-5.92-3.36,1.01-2.66-3.35-3.38-4.22-.21-.25-1.23.39-1.69,0Z"/>
  <path class="cls-1" d="M192,209.96c4.05,2.38,6.26,5.7,12.25,5.92,1.59.06,3.01-1.08,4.64-.84-1.15,3.43-11.37,2.1-11.82,2.53-2.36,2.26,5.26,5.23,7.07,4.18l6.44-2.49c-3.22,4.14-12.39,5.47-14.77-.01-.8-1.84-.1-3.69-.59-5.32-.43-1.46-2.03-1.37-3.23-3.95-1.74-1.02-2.86-.95-3.38-4.22,1.28,1.23,1.76,3.06,3.38,4.22Z"/>
  <path class="cls-2" d="M219.03,138.18c-.08,3.61,3.62,7.66,4.32,11.3l6.22,9.82c1.96-4.72,12.23-16.8,12.26-21.12,4.13.93,12.6,6.63,16.31,6.54.34,0,.43-.57.58-.63.24-.1.61.1.84,0,2.37,2.93-1.56,4.58-1.61,7.15-.12,6.55,7.44,13.39,14.28,12.27.3,2.45,2.42,4.92,2.54,7.32.07,1.44-.8,1.76-.85,1.97-4.46,2.7-12.83,3.79-16.86,6.38-1.36.88-1.45,1.45-1.72,2.91-1.12,5.94.11,13.52-.84,18.58-.56,2.97-3.36,3.26-4.53,4.34-3.8,3.49-9.9,9.63-14.3,11.88-2.39,1.23-14.32,4.37-16.64,4.05-1.84-.25-4.97-3.06-7.6-2.53.39-1.68-.33-3.39.64-5.7.8-1.91,5.91-6.54,6.12-6.97,3.25,5.3,6.44,8.89,13.09,9.31,2.66.17.43-.9.43-1.28v-16.05c0-2.4-6.39-5.95-7.15-7.21-.97-1.62-.96-6.08-1.73-8.41-3.72-11.34-15.73-15.07-26.43-12.09-2.68.75-4.83,2.85-7.77,2.79,1.59-6.1,2.23-18.49,6.73-23.25,1.53-1.61,4-1.7,5.09-3.78l18.58-7.6Z"/>
  <path class="cls-9" d="M228.32,73.14c1.5-.1,3.61-.16,5.07,0,33.95,3.8,23.78,47.54,25.34,70.94-.15.06-.24.62-.58.63-3.72.08-12.18-5.61-16.31-6.54.02-2.25-2.74-6.79-2.35-8.77.1-.49,3.53-4.27,4.39-5.66,1.11-1.81,2.02-4.78,3-6.06,1.71-2.24,8.12-4.73,4.7-9.95-.58-.88-16.64-4.25-20.19-5.98-5.43-2.65-9.2-7.27-13.61-10.87-1.95,4.97-8.96,10.45-8.95,15.62.01,8.04,2.86,16.3,8.08,22.4,1.14,1.33,3.62,2.45,3.74,2.64.41.72-1.57,5.04-1.6,6.63l-18.58,7.6c-.13-1.64.19-3.46,0-5.07.77-12.77-1.03-26.67-.03-39.3,1.21-15.29,12.54-27.28,27.9-28.26Z"/>
  <path class="cls-2" d="M230.85,236.99c2.32-1.18,7.43-7.35,10.36-9.48,2.51-1.83,16.62-9.91,18.77-9.97,2.01-.05.89.24,1.27,1.31,1.7,4.84,3.86,10.94,5.07,15.61,1.48,5.68,3.07,14.22,3.98,20.09.65,4.24,1.31,8.54,1.09,12.85-12.38.02-24.79-.04-37.16,0-.26-7.32-2.73-15.46-3.31-22.52-.12-1.42.76-2.38.77-2.82.03-1.77-.32-3.4-.84-5.07Z"/>
  <path class="cls-10" d="M259.98,217.54c-2.15.05-16.26,8.14-18.77,9.97-2.94,2.14-8.04,8.3-10.36,9.48-3.65,1.87-17.98,2.2-15.71-5.08,1.36-4.38,8.41-4.79,3.89-10.96,2.32.32,14.25-2.82,16.64-4.05,4.4-2.25,10.5-8.39,14.3-11.88,1.17-1.08,4.08-2.05,4.64-5.02,8.85-1.24,5.83-9.98,3.11-15.68-.59-1.24-.39-2.65-2.38-2.22.28-1.46.36-2.04,1.72-2.91,4.03-2.59,12.39-3.67,16.86-6.38-1.34,6.03.37,4.66,1.32,9.24,1.03,4.97,3.53,17.68,1.26,21.63-2.03,3.54-13.14,11.46-14.26,12.79"/>
  <path class="cls-1" d="M272.23,163.51c-6.83,1.12-14.39-5.72-14.28-12.27.05-2.58,3.98-4.23,1.61-7.15.16-.07.41-1.56,2.1-1.7,11.19-.91,20.43,19.51,10.57,21.12Z"/>
  <path class="cls-10" d="M219.03,138.18c.04-1.59,2.01-5.91,1.6-6.63-.11-.2-2.6-1.31-3.74-2.64-5.22-6.1-8.06-14.36-8.08-22.4,0-5.17,7-10.65,8.95-15.62,4.41,3.6,8.18,8.23,13.61,10.87,3.56,1.73,19.62,5.1,20.19,5.98,3.42,5.21-2.99,7.71-4.7,9.95-.98,1.29-1.89,4.25-3,6.06-.86,1.39-4.29,5.17-4.39,5.66-.39,1.98,2.36,6.52,2.35,8.77-.03,4.32-10.29,16.39-12.26,21.12l-6.22-9.82c-.71-3.64-4.41-7.69-4.32-11.3Z"/>
  <path class="cls-6" d="M147.24,116.22c.02,5.89,10.72,9.38,15.62,9.36,5.03-.02,13.83-3.74,13.94-9.36h.84c.27.05.58-.06.84,0,.78.19,1.54.81,2.53.84.53.02,1.18.07,1.69,0l1.69.84c1.24,1.47,13.3,3.34,15.71,5.73,2.99,2.98.22,11.32.44,14.96.07,1.12-.13,1.9-.1,2.11.19,1.61-.13,3.42,0,5.07-1.09,2.08-3.56,2.17-5.09,3.78-4.51,4.75-5.14,17.15-6.73,23.25-.92,3.52-4.5,6.56-5.51,10.11-.61,2.13-.29,6.86-1.46,8.25-.49.59-2.78,1.1-4.05,2.28-6.02,5.56-1.92,10.99-2.44,16.94-.27,3.1-3.88,5.66.37,5.49,5.96-.23,9.97-4.93,11.41-10.14.54-.08,1.21.11,1.69,0,.51,3.27,1.64,3.2,3.38,4.22,1.19,2.58,2.79,2.5,3.23,3.95.48,1.63-.21,3.48.59,5.32,2.38,5.49,11.54,4.15,14.77.01.19-.25.75-.45.84-.84,2.63-.52,5.76,2.28,7.6,2.53,4.52,6.17-2.53,6.58-3.89,10.96-2.26,7.28,12.06,6.95,15.71,5.08.53,1.67.88,3.29.84,5.07-2.18.16-10.4,3.04-10.89,4.77-.75,2.66,4.26,16.35,3.28,20.56-13.78.02-27.6-.01-41.38,0l3.44-21.41c-.21-.92-8.54-3.4-10.2-3.08-.04-.1-1.29-.46-1.57-1.42-.54-1.88,3.29-10.73,4.5-12.96,1.25-2.31,3.45-3.44,3.82-5.88-6.94-1.57-14.09-.41-21.11-.85-.28-.02-.57.04-.84,0-1.24-5.8-10.66-11.3-16.05-11.82-.76-.46-2.9-2.42-3.38-2.53.15-1.04-.22-2.44,0-3.38.68-2.93,3.16-4.06,4.93-6.47.93-1.27,1.29-3.14,2.27-4.48,2.27-3.1,5.7-2.45,4.62-8.9-.28-1.7-1.63-1.96-1.69-2.1-.11-.27-.02-1.22,0-1.69.07-1.4.11-.96,0-2.53-.12-1.65.19-3.48,0-5.07,0-.04.12-.12,0-.84-1.83-11.05-12.48-15.39-22.8-14.36-2.34-6.99-8.55-12.43-15.2-15.2.2-17.43,20.12-22.26,33.78-26.18Z"/>
  <path class="cls-1" d="M138.79,80.75c.16,1.08,2.3,7.34,3.81,5.08,2.68-4.02,2.38-17.74,5.19-18.5,1.36-.37,6.98,1.45,9.17,1.58,3,.17,7.22.31,10.16.05,3.2-.29,7.1-2.59,9.68-1.32,2.87,1.42,1.25,7.73,1.88,10.81.49,2.4,3.21,5.32,3.2,8.21.97.76,3.21-4.75,3.37-5.91,4.37,2.06,2.72,8.69.39,11.81-.87,1.16-2.36,1.4-2.97,2.3-.39.58-4.63,9.36-5.02,10.38-.09.23.08.57,0,.84-3.66,1.87-.79,7.06-.84,10.13-.11,5.62-8.91,9.34-13.94,9.36-4.9.02-15.61-3.47-15.62-9.36,0-1.83,1.98-6.28,1.26-8.4-.51-1.53-3.05-3.62-3.97-5.36-1.19-2.25-1.74-5.7-2.85-7.29-1.2-1.73-4.4-3.87-5.43-6.82.04-.28-.03-.57,0-.84.27-2.33.02-5.49,2.53-6.76Z"/>
  <path class="cls-8" d="M160.75,221.79c7.02.44,15.01-.72,21.95.85-.37,2.44-2.57,3.58-3.82,5.88-1.21,2.23-5.04,11.09-4.5,12.96.28.96,1.53,1.32,1.57,1.42.65,1.75-4.6,20.65-4.22,24.49-1.13,0-2.25,0-3.38,0-1.16-9.23-3.31-18.63-4.22-27.87-.05-.52-.04-1.16,0-1.69-.89-1.19-1.41-2.15-.68-2.07.35-.93-4.5-3.63-4.52-3.74-.81-5.26,2.13-5.02,1.82-10.23Z"/>
  <path class="cls-7" d="M151.46,172.8v-.84c.12.72,0,.8,0,.84Z"/>
  <path class="cls-9" d="M185.24,80.75c-.16,1.16-2.39,6.67-3.37,5.91,0-2.89-2.71-5.81-3.2-8.21-.62-3.08.99-9.38-1.88-10.81-2.58-1.28-6.48,1.03-9.68,1.32-2.93.26-7.15.13-10.16-.05-2.19-.13-7.81-1.95-9.17-1.58-2.81.76-2.51,14.48-5.19,18.5-1.51,2.26-3.65-4-3.81-5.08-1.56-10.59,1.38-22.23,12.09-26.34,20.63-7.9,37.42,3.82,34.36,26.34Z"/>
  <path class="cls-3" d="M108.39,133.95c.67-1.25.54-5.36,1.62-7.04.86-1.34,3.73-.81,4.76-3.89,2.27-6.79-1.72-5.96-3.37-8.55-.73-1.15-.42-2.69-1.66-4.25-2.33-2.93-8.64-5.38-8.96-10.91-6.63,4.78-11.37,8.74-19.23,11.58-6.17,2.23-4.32-.11-9.55,4.81-2.18,2.05-5.05.91-2.93,7.31,1.08,3.26,7,3.05,5.53,9.24-1.38.31-.03,1.31-1.13.91-.27-.1-1.21-.51-1.41-.63l-2.52-1.96c-1.74-1.48-3-4.62-5.07-5.91-.22-.82-.65-1.56-.84-2.53-.38-1.89-.56-4.42-1.69-5.91.01-.56-.03-1.13,0-1.69.49-8.57.94-16.02,7.16-22.82,2.58-2.82,7.39-4.41,8.92-6.28,1.12-1.37,1.48-4.02,2.63-5.81,3.59-5.58,9.64-6.86,15.94-5.23,6.09,1.58,5.56,6.87,8.4,10.18,1.93,2.24,6.62,4.09,9.17,6.87,10.86,11.87,9.45,34.8-5.77,42.51Z"/>
  <path class="cls-10" d="M102.48,139.87c5.57,21.42-25.76,21.56-21.97,0"/>
  <path class="cls-10" d="M80.52,139.86c.5-2.1-7.9-5.27-8.45-7.32,1.1.4,1.16.03,2.54-.28,1.47-6.19-4.45-5.98-5.53-9.24-2.13-6.4.74-5.25,2.93-7.31,5.23-4.92,3.38-2.58,9.55-4.81,7.86-2.84,12.6-6.8,19.23-11.58.32,5.52,6.63,7.98,8.96,10.91,1.24,1.56.93,3.1,1.66,4.25,1.65,2.58,5.65,1.75,3.37,8.55-1.03,3.08-3.9,2.55-4.76,3.89-1.08,1.68-.95,5.8-1.62,7.04-.35.66-6.55,3.35-5.91,5.92"/>
  <path class="cls-4" d="M122.75,210.81c-3.07-1.88-9.88-.02-6.8,3.87,1.4,1.77,2.3.5,3.42,4.57-2.31-1.25-3.05-3.8-5.04-5.52-4.86-4.18-8.68-2.61-14.38-2.92-4.65-1.31-2.76-.97-3.87-5.17l-26.13-10.02-1.26-20.28c-1.65.3-1.37,1.79-1.72,2.92-.74,2.44-4.43,18.23-3.84,19.07,9.98,3.79,19.7,8.2,29.82,11.63,1.15.39,2.49,1.78,2.77,1.86-.39,2.5-2.74,9.83-1.57,11.7.57.91,8.88,1.28,11.03,2.06,3.23,1.17,5.6,4.39,9.96,4.81-3.73,3.5-11.28-7.28-14.45-2.87-.79,1.1-3.07,10.73-2.44,11.32,2.7.11,9.05,1.27,11.27,2.51,1.06.59.4,1.53.55,1.71-2.7-.11-8.54-4.15-10.56-1.69-2.6,3.15-3.48,22.1-4.64,27.04-12.76-.03-30.66,1.48-42.69.04-.9-.11-1.94.03-2.54-.83-.57-.82.25-17.59.49-19.89.85-8.41,3.84-16.39,5.06-24.08,12.09,3.79,25.42,3.47,38.01,4.22v-2.95l-36.73-6.35-1.28,3.39c.44-6.3-.92-3.14-5.66-5.74-8.97-4.91-7.13-14.71-5.91-23.15,1-6.97,5.82-21.23,5.66-26.85,5.74-2.06,12.52-2.57,14.18-9.89.98-4.31-2.38-8.52,1.02-10.38,2.02-1.1,14.99-6.12,16.04-5.07-3.8,21.57,27.53,21.42,21.97,0,.57-.54,7.94,1.23,9.29,1.69.37.13,1.07.59,1.69.84,6.65,2.78,12.86,8.21,15.2,15.2-12.29,1.23-20.16,13.54-16.05,25.34-.52.19-1.18-.44-1.77.49-3.19,5.03,2.23,6.67,3.82,8.86.93,1.28,7.17,10.49,7.44,11.13,1.16,2.73.26,4.95.63,7.39Z"/>
  <path class="cls-1" d="M62.78,143.24l1.69,1.69c-3.41,1.86-.05,6.07-1.02,10.38-1.66,7.31-8.44,7.82-14.18,9.89-.06-2.14-1.56-2.22-1.69-2.53-2.56-6.07-1.78-9.75,2.55-14.76,4.92-5.68,6.72-3.7,12.65-4.67Z"/>
  <path class="cls-8" d="M55.18,220.94l1.28-3.39,36.73,6.35v2.95c-12.59-.74-25.92-.43-38.01-4.22.08-.52-.04-1.14,0-1.69Z"/>
  <path class="cls-8" d="M99.95,210.81c-1.26-.07-3.24.26-4.22,0-.28-.08-1.61-1.46-2.77-1.86-10.12-3.43-19.84-7.84-29.82-11.63-.59-.84,3.1-16.63,3.84-19.07.34-1.13.07-2.62,1.72-2.92l1.26,20.28,26.13,10.02c1.1,4.2-.78,3.86,3.87,5.17Z"/>
  <path class="cls-5" d="M162.36,231.16s1.59,4.96,1.77,6.68c.05.42-.05,1.17,0,1.69-3.91-.45-7.27,1.82-10.98,2.53-.28.33-.28.55-.84.85-.3,4.68,1.69,8.83,1.69,13.51,0,.56.04,1.14,0,1.69,1.17.42.72,1.64.85,2.53.08.54-.08,1.16,0,1.69.2,1.23,1.63,3.1.85,5.07-16.03-.01-32.11.03-48.14,0v-1.69c0-1.11-.09-2.28,0-3.38.19-2.24.16-4.92,1.69-6.76.03-.56-.03-1.13,0-1.69.08-1.77.32-3.78,1.69-5.07,0-.56.03-1.13,0-1.69-.08-1.4.06-2.82,0-4.22-.56-.3-.56-.5-.85-.85-.15-.18.51-1.12-.55-1.71-2.22-1.23-8.57-2.4-11.27-2.51-.63-.6,1.65-10.22,2.44-11.32,3.17-4.4,10.72,6.37,14.45,2.87.27.03.58.03.85,0,1.04-.09,1.06-.38,1.69-.84,3.42-2.54,2.73-5.5,1.69-9.29-1.12-4.07-2.02-2.8-3.42-4.57-.73-.92-.9-1.73-.71-2.41.65-2.16,5.16-2.9,7.5-1.47.82,5.33,10.52,4.98,14.44,3.86,1.48-.42,2.03-1.99,3.3-3.02,1.61-1.31,1.09-1.99,4.22-1.69,5.39.52,14.81,6.02,16.05,11.82-.04,0-.06,0-.07,0,.02,0,.05.01.07.01.32,5.21,1.6,9.36,1.6,9.36Z"/>
  <path class="cls-5" d="M160.83,221.8s-.04,0-.07,0c-.03,0-.06,0-.07-.01.01,0,.03,0,.07,0,.04,0,.06,0,.07.02Z"/>
  <path class="cls-7" d="M112.61,182.94c.79-.28,1.7.38,2.95-.83,1.44-1.41,3.6-8.72,6.03-9.19,6.38,3.48,12.18,4.74,19.33,5.78l.82-3.36c2.59,1.97,4.25,4.67,6.27,7.09.94,1.12,2.38-.31,3.45-.34.06.14,1.41.4,1.69,2.1,1.08,6.45-2.35,5.8-4.62,8.9-.98,1.34-1.34,3.21-2.27,4.48-1.77,2.41-4.25,3.54-4.93,6.47-5.74,2.23-11.9,2.36-17.72.41,4.17,6.8,13.09,1.85,17.72,2.96.48.12,2.62,2.07,3.38,2.53-3.13-.3-2.62.38-4.22,1.69-1.27,1.03-1.82,2.6-3.3,3.02-3.91,1.11-13.62,1.47-14.44-3.87-.38-2.44.53-4.66-.64-7.39-.27-.64-6.51-9.86-7.44-11.14-1.59-2.19-7.01-3.83-3.82-8.85.59-.93,1.24-.3,1.76-.49Z"/>
  <path class="cls-9" d="M128.66,157.6c10.33-1.04,20.98,3.31,22.8,14.36v.84c.19,1.59-.12,3.42,0,5.07v2.53c-.02.47-.11,1.42,0,1.69-1.07.03-2.51,1.46-3.45.34-2.02-2.42-3.69-5.12-6.27-7.09l-.82,3.36c-7.15-1.04-12.95-2.3-19.33-5.78-2.43.47-4.59,7.78-6.03,9.19-1.24,1.21-2.15.55-2.95.83-4.11-11.8,3.76-24.1,16.05-25.34Z"/>
  <path class="cls-1" d="M141.33,204.05c-.22.93.15,2.34,0,3.38-4.63-1.11-13.55,3.83-17.72-2.96,5.82,1.94,11.97,1.81,17.72-.41Z"/>
  <path class="cls-7" d="M151.46,180.4v-2.53c.11,1.57.07,1.13,0,2.53Z"/>
  <path class="cls-7" d="M164.13,239.52c.91,9.24,3.07,18.64,4.22,27.87-4.21,0-8.45,0-12.67,0,.78-1.97-.65-3.84-.84-5.07-.09-.53.08-1.15,0-1.69-.12-.89.33-2.11-.84-2.53.04-.55,0-1.13,0-1.69,0-4.68-1.98-8.84-1.69-13.51.56-.29.56-.52.84-.84,3.71-.72,7.07-2.98,10.98-2.53Z"/>
  <path class="cls-7" d="M110.08,242.06c.29.34.29.55.84.84.05,1.4-.08,2.82,0,4.22.03.56-.01,1.13,0,1.69-1.37,1.29-1.61,3.3-1.69,5.07-.03.56.03,1.13,0,1.69-1.53,1.83-1.5,4.52-1.69,6.76-.09,1.1,0,2.27,0,3.38v1.69c-4.21,0-8.45,0-12.67,0,1.16-4.93,2.04-23.89,4.64-27.03,2.02-2.45,7.87,1.59,10.57,1.7Z"/>
  <path class="cls-10" d="M99.94,210.81c5.7.32,9.53-1.26,14.39,2.93,1.99,1.72,2.73,4.27,5.04,5.52,1.04,3.79,1.73,6.75-1.69,9.29l-1.69.84c-.27.02-.58.03-.84,0-4.36-.42-6.74-3.65-9.97-4.81-2.15-.78-10.46-1.15-11.03-2.06-1.17-1.87,1.18-9.21,1.57-11.71.99.26,2.96-.07,4.22,0Z"/>
  <path class="cls-4" d="M117.68,228.54c-.63.47-.65.76-1.69.84l1.69-.84Z"/>
</svg>